<?xml version="1.0" standalone="no"?><!DOCTYPE svg PUBLIC "-//W3C//DTD SVG 1.1//EN" "http://www.w3.org/Graphics/SVG/1.1/DTD/svg11.dtd"><svg t="1784858844688" class="icon" viewBox="0 0 2000 1024" version="1.1" xmlns="http://www.w3.org/2000/svg" p-id="5858" xmlns:xlink="http://www.w3.org/1999/xlink" width="390.625" height="200"><path d="M792.057858 236.790246c30.243579 30.29458 47.649483 66.865923 48.268781 109.743172-0.455366 40.691493-13.369542 76.071599-41.383649 106.154889-16.549817 15.413224-33.205278 27.136162-54.243181 35.463893l-11.384147 4.553658c-40.979284 7.930652-80.45404 4.426156-116.999882-16.520673C582.691565 452.702879 555.76305 419.774463 547.981758 378.864394c-3.613783-48.713218 1.857893-88.989417 33.810004-128.198239C639.477509 189.964064 726.798466 183.457797 792.057858 236.790246z" fill="#0E0E0E" p-id="5859"></path><path d="M813.915419 171.217563c60.130151-4.910665 60.130151-4.910665 79.404877 5.508105 7.959795 8.611879 13.351327 16.968753 18.954149 27.278236l6.830488 11.613651c34.247155 62.785845 44.214203 133.159906 27.777317 203.093173-9.059959 28.943054-22.622576 54.541901-38.250732 80.370253l-4.86695 9.905118c-5.850541 9.602755-10.987067 13.500687-20.633538 19.238296-8.9616 1.551887-8.9616 1.551887-18.615357 1.723105l-10.477057 0.207647A793.101608 793.101608 0 0 1 806.629566 528.224395c4.298654-12.895961 7.519001-14.364061 18.444138-21.857561 38.411021-29.132486 62.720272-74.774717 71.605371-121.925119 6.477124-58.294116-3.041844-114.391546-39.70426-161.498234C842.585254 206.590383 827.539966 191.781885 810.272492 178.503416l3.642927-7.285853zM573.482246 171.217563v10.92878c-7.070921 6.95799-7.070921 6.95799-16.622675 14.801212C519.439426 229.821327 497.235787 270.888042 489.694928 320.577564c-3.759501 61.940685 9.839545 119.688362 51.000976 167.80414 12.232948 12.852246 25.493202 22.535146 40.072196 32.556838v7.285853c-19.300227 1.347883-38.542166 2.105612-57.886108 1.723105l-9.653756-0.171218c-10.804921-1.872464-16.389528-5.635608-24.669901-12.706529-4.925237-8.098226-4.925237-8.098226-9.792187-17.988772l-7.369641-12.054445c-37.431074-62.388765-47.671341-135.41852-30.651587-206.295306C449.273012 253.401993 460.613443 228.666519 475.123221 204.003904l5.693895-10.473414C502.762107 161.010082 538.491934 168.357865 573.482246 171.217563z" fill="#BEBEBE" p-id="5860"></path><path d="M945.060786 171.217563h58.28683c44.399993 79.506879 56.090145 179.115428 32.786342 267.755124-9.278535 31.627891-24.43311 60.363298-40.072195 89.251708h-61.929757c3.774072-15.096289 9.161961-24.178106 17.303902-37.34 40.312629-67.652795 48.87715-152.237914 30.03229-228.287655-6.921561-24.451325-18.404067-46.593035-30.545942-68.811245C945.060786 182.146343 945.060786 182.146343 945.060786 171.217563zM384.050049 171.217563h58.28683c-3.384279 16.921395-7.522644 26.189001-15.711943 40.982927-34.126939 65.998906-38.95746 146.219799-18.567999 217.449947 9.158318 28.159825 22.513288 57.827821 40.640492 81.310128C453.26566 517.295615 453.26566 517.295615 453.26566 528.224395H391.335903C344.232859 439.559198 324.903489 335.22213 354.134334 236.855819 361.78448 213.741448 372.177751 192.474041 384.050049 171.217563z" fill="#BEBEBE" p-id="5861"></path><path d="M631.543215 279.368775C642.697857 280.505369 642.697857 280.505369 648.774259 284.221154c7.613717 11.318574 6.429766 23.194515 6.218476 36.35641l0.127502 7.996225c-0.06193 10.96521-0.182146 19.11808-6.218476 28.476759-10.732063 6.229405-20.1636 2.732195-31.704392-0.043715-5.981686-11.963372-4.316868-25.117981-4.327798-38.250732l-0.134788-8.666523c-0.018215-7.438857 0.375221-14.87407 0.819659-22.298356 7.285854-7.285854 7.285854-7.285854 17.988773-8.42609z" fill="#F8F8F8" p-id="5862"></path><path d="M744.473947 279.368775C755.628589 280.505369 755.628589 280.505369 761.704991 284.221154c7.613717 11.318574 6.429766 23.194515 6.218477 36.35641l0.127502 7.996225c-0.105645 19.139938-0.105645 19.139938-6.473481 28.349256-8.597307 5.387889-14.225629 5.216671-24.163534 3.726715-5.952542-4.652018-5.952542-4.652018-10.92878-10.928781a269.365298 269.365298 0 0 1-1.140237-31.194383l-0.036429-8.615522c0.27322-28.535046 0.27322-28.535046 19.161795-30.545942z" fill="#F9F9F9" p-id="5863"></path></svg>